<svg width="41" height="40" viewBox="0 0 41 40" fill="none" xmlns="http://www.w3.org/2000/svg">
<path fill-rule="evenodd" clip-rule="evenodd" d="M13.167 10C13.167 8.01088 13.9572 6.10322 15.3637 4.6967C16.7702 3.29018 18.6779 2.5 20.667 2.5C22.6561 2.5 24.5638 3.29018 25.9703 4.6967C27.3768 6.10322 28.167 8.01088 28.167 10C28.167 11.9891 27.3768 13.8968 25.9703 15.3033C24.5638 16.7098 22.6561 17.5 20.667 17.5C18.6779 17.5 16.7702 16.7098 15.3637 15.3033C13.9572 13.8968 13.167 11.9891 13.167 10ZM6.91866 33.5083C6.97486 29.8991 8.44806 26.4568 11.0203 23.9243C13.5925 21.3918 17.0573 19.9724 20.667 19.9724C24.2766 19.9724 27.7415 21.3918 30.3137 23.9243C32.8859 26.4568 34.3591 29.8991 34.4153 33.5083C34.4197 33.7513 34.3531 33.9903 34.2237 34.196C34.0944 34.4017 33.9078 34.5653 33.687 34.6667C29.6023 36.5395 25.1606 37.5061 20.667 37.5C16.0237 37.5 11.612 36.4867 7.64699 34.6667C7.42613 34.5653 7.23961 34.4017 7.11026 34.196C6.9809 33.9903 6.91432 33.7513 6.91866 33.5083Z" fill="black"/>
</svg>
